<svg width="16" height="16" viewBox="0 0 16 16" fill="none" xmlns="http://www.w3.org/2000/svg">
<path d="M13.3346 4.66797H7.33464M9.33464 11.3346H3.33464M9.33464 11.3346C9.33464 12.4392 10.2301 13.3346 11.3346 13.3346C12.4392 13.3346 13.3346 12.4392 13.3346 11.3346C13.3346 10.2301 12.4392 9.33464 11.3346 9.33464C10.2301 9.33464 9.33464 10.2301 9.33464 11.3346ZM6.66797 4.66797C6.66797 5.77254 5.77254 6.66797 4.66797 6.66797C3.5634 6.66797 2.66797 5.77254 2.66797 4.66797C2.66797 3.5634 3.5634 2.66797 4.66797 2.66797C5.77254 2.66797 6.66797 3.5634 6.66797 4.66797Z" stroke="white" stroke-linecap="round" stroke-linejoin="round"/>
</svg>
