<svg width="14" height="14" viewBox="0 0 14 14" fill="none" xmlns="http://www.w3.org/2000/svg">
<path d="M8.60142 4.86863H8.60675M2.20142 3.80197C2.20142 3.37762 2.36999 2.97065 2.67005 2.67059C2.9701 2.37054 3.37707 2.20197 3.80142 2.20197H10.2014C10.6258 2.20197 11.0327 2.37054 11.3328 2.67059C11.6328 2.97065 11.8014 3.37762 11.8014 3.80197V10.202C11.8014 10.6263 11.6328 11.0333 11.3328 11.3333C11.0327 11.6334 10.6258 11.802 10.2014 11.802H3.80142C3.37707 11.802 2.9701 11.6334 2.67005 11.3333C2.36999 11.0333 2.20142 10.6263 2.20142 10.202V3.80197Z" stroke="#EBE9FE" stroke-width="1.06667" stroke-linecap="round" stroke-linejoin="round"/>
<path d="M2.20142 9.13519L4.86808 6.46853C5.36302 5.99226 5.97315 5.99226 6.46808 6.46853L9.13475 9.13519" stroke="#EBE9FE" stroke-width="1.06667" stroke-linecap="round" stroke-linejoin="round"/>
<path d="M8.06787 8.06827L8.6012 7.53493C9.09614 7.05867 9.70627 7.05867 10.2012 7.53493L11.8012 9.13493" stroke="#EBE9FE" stroke-width="1.06667" stroke-linecap="round" stroke-linejoin="round"/>
</svg>
