<svg width="16" height="16" viewBox="0 0 16 16" fill="none" xmlns="http://www.w3.org/2000/svg">
<path d="M11.9997 14.0003C11.9997 12.5858 11.4378 11.2293 10.4376 10.2291C9.43738 9.2289 8.08083 8.66699 6.66634 8.66699C5.25185 8.66699 3.8953 9.2289 2.89511 10.2291C1.89491 11.2293 1.33301 12.5858 1.33301 14.0003" stroke="white" stroke-width="1.33333" stroke-linecap="round" stroke-linejoin="round"/>
<path d="M6.66634 8.66764C8.50729 8.66764 9.99967 7.17526 9.99967 5.33431C9.99967 3.49336 8.50729 2.00098 6.66634 2.00098C4.82539 2.00098 3.33301 3.49336 3.33301 5.33431C3.33301 7.17526 4.82539 8.66764 6.66634 8.66764Z" stroke="white" stroke-width="1.33333" stroke-linecap="round" stroke-linejoin="round"/>
<path d="M14.6669 13.3344C14.6669 11.0878 13.3335 9.00111 12.0002 8.00111C12.4385 7.67229 12.7889 7.2405 13.0206 6.74395C13.2522 6.24741 13.3579 5.70142 13.3282 5.15431C13.2985 4.60719 13.1345 4.07583 12.8505 3.60724C12.5666 3.13865 12.1715 2.74728 11.7002 2.46777" stroke="white" stroke-width="1.33333" stroke-linecap="round" stroke-linejoin="round"/>
</svg>
