<svg width="17" height="17" viewBox="0 0 17 17" fill="none" xmlns="http://www.w3.org/2000/svg">
<path d="M1.53259 14.5C1.53254 13.4736 1.82868 12.4689 2.38549 11.6066C2.9423 10.7443 3.73611 10.061 4.67166 9.63868C5.60721 9.21637 6.64475 9.073 7.65977 9.22578C8.67478 9.37857 9.62414 9.821 10.3939 10.5M12.8659 11.1667V15.1667M14.8659 13.1667H10.8659M10.1993 5.83333C10.1993 7.67428 8.70688 9.16667 6.86593 9.16667C5.02498 9.16667 3.53259 7.67428 3.53259 5.83333C3.53259 3.99238 5.02498 2.5 6.86593 2.5C8.70688 2.5 10.1993 3.99238 10.1993 5.83333Z" stroke="white" stroke-linecap="round" stroke-linejoin="round"/>
</svg>
