<svg width="24" height="24" viewBox="0 0 24 24" fill="none" xmlns="http://www.w3.org/2000/svg">
<path d="M11.999 3.0001C10.799 3.0001 9.59905 3.6001 8.99905 4.7001C8.40025 4.5468 7.77207 4.55025 7.175 4.71013C6.57792 4.87001 6.03207 5.18093 5.59001 5.61294C5.14794 6.04496 4.82456 6.58352 4.651 7.17676C4.47744 7.77001 4.45955 8.39794 4.59905 9.0001C3.59905 9.6001 2.89905 10.8001 2.89905 12.0001C2.89905 13.2001 3.59905 14.4001 4.59905 15.0001C4.29905 16.2001 4.59905 17.5001 5.59905 18.4001C6.39905 19.2001 7.69905 19.6001 8.89905 19.4001C9.49905 20.4001 10.699 21.0001 11.899 21.0001C13.099 21.0001 14.299 20.4001 14.899 19.3001C16.099 19.6001 17.399 19.3001 18.299 18.3001C19.099 17.5001 19.499 16.3001 19.299 15.0001C20.299 14.4001 20.899 13.2001 20.899 12.0001C20.899 10.8001 20.299 9.6001 19.199 9.0001C19.499 7.8001 19.199 6.5001 18.199 5.6001C17.7715 5.17803 17.2476 4.86641 16.6727 4.69218C16.0977 4.51795 15.489 4.48635 14.899 4.6001C14.299 3.6001 13.099 3.0001 11.899 3.0001H11.999Z" fill="#2E90FA" stroke="#2E90FA" stroke-linecap="round" stroke-linejoin="round"/>
<path d="M9 11.9993L11 13.9993L15 9.99934" stroke="white" stroke-width="1.875" stroke-linecap="round" stroke-linejoin="round"/>
</svg>
